<svg width="170" height="42" viewBox="0 0 170 42" fill="none" xmlns="http://www.w3.org/2000/svg">
<path d="M21.5325 27.8792C22.5686 27.3254 23.7322 27.0408 25.0154 27.0408C26.9602 27.0408 28.5861 27.7023 29.8852 29.0176L31.4952 27.5177C30.7061 26.6563 29.7497 26.0102 28.6259 25.5717C27.5021 25.1333 26.2667 24.918 24.9198 24.918C23.1903 24.918 21.6201 25.2872 20.2253 26.0256C18.8226 26.7639 17.7307 27.7792 16.9337 29.0791C16.1446 30.379 15.7461 31.8327 15.7461 33.4556C15.7461 35.0785 16.1446 36.5399 16.9337 37.8321C17.7227 39.1319 18.8146 40.1472 20.2094 40.8856C21.6042 41.624 23.1663 41.9932 24.8959 41.9932C26.2508 41.9932 27.4862 41.7702 28.618 41.324C29.7497 40.8779 30.7061 40.2241 31.4952 39.3704L29.8852 37.8705C28.5701 39.2089 26.9442 39.878 25.0154 39.878C23.7322 39.878 22.5686 39.6011 21.5325 39.0397C20.4963 38.4859 19.6834 37.7167 19.1015 36.7399C18.5197 35.7631 18.2248 34.6709 18.2248 33.4633C18.2248 32.2557 18.5197 31.1635 19.1015 30.1867C19.6754 29.2022 20.4884 28.433 21.5325 27.8792Z" fill="white"/>
<path d="M32.6426 27.1851H38.5565V41.8067H40.9794V27.1851H46.9092V25.1084H32.6426V27.1851Z" fill="white"/>
<path d="M51.5718 37.9908V25.1074H49.125V41.8058H51.4045L61.6621 28.9455V41.8058H64.0851V25.1074H61.8056L51.5718 37.9908Z" fill="white"/>
<path d="M89.8118 27.8792C90.8479 27.3254 92.0115 27.0408 93.2947 27.0408C95.2394 27.0408 96.8654 27.7023 98.1645 29.0176L99.7745 27.5177C98.9854 26.6563 98.029 26.0102 96.9052 25.5717C95.7814 25.1333 94.546 24.918 93.1991 24.918C91.4696 24.918 89.8994 25.2872 88.5046 26.0256C87.1019 26.7639 86.01 27.7792 85.2129 29.0791C84.4239 30.379 84.0254 31.8327 84.0254 33.4556C84.0254 35.0785 84.4239 36.5399 85.2129 37.8321C86.002 39.1319 87.0939 40.1472 88.4887 40.8856C89.8835 41.624 91.4456 41.9932 93.1752 41.9932C94.5301 41.9932 95.7655 41.7702 96.8973 41.324C98.029 40.8779 98.9854 40.2241 99.7745 39.3704L98.1645 37.8705C96.8494 39.2089 95.2235 39.878 93.2947 39.878C92.0115 39.878 90.8479 39.6011 89.8118 39.0397C88.7756 38.4859 87.9627 37.7167 87.3808 36.7399C86.799 35.7631 86.5041 34.6709 86.5041 33.4633C86.5041 32.2557 86.799 31.1635 87.3808 30.1867C87.9627 29.2022 88.7756 28.433 89.8118 27.8792Z" fill="white"/>
<path d="M102.096 41.8058H104.543V27.1841H114.577V41.8058H117V25.1074H102.096V41.8058Z" fill="white"/>
<path d="M130.527 26.0256C129.124 25.2872 127.562 24.918 125.825 24.918C124.478 24.918 123.242 25.1333 122.118 25.5717C121.066 25.9871 120.15 26.587 119.393 27.3716L120.891 28.9868C122.19 27.6869 123.8 27.0408 125.729 27.0408C127.012 27.0408 128.176 27.3177 129.212 27.8715C130.248 28.4253 131.061 29.1945 131.643 30.1713C132.225 31.1481 132.519 32.2403 132.519 33.4479C132.519 34.6555 132.225 35.7477 131.643 36.7322C131.061 37.709 130.248 38.4782 129.212 39.032C128.176 39.5858 127.012 39.8626 125.729 39.8626C123.8 39.8626 122.182 39.2012 120.867 37.8705L119.48 39.5934C120.221 40.3395 121.106 40.9087 122.134 41.3163C123.266 41.7625 124.501 41.9855 125.856 41.9855C127.586 41.9855 129.148 41.6163 130.543 40.8779C131.938 40.1395 133.022 39.1166 133.819 37.8244C134.608 36.5322 135.006 35.0708 135.006 33.4479C135.006 31.825 134.608 30.3636 133.819 29.0714C133.022 27.7869 131.93 26.7716 130.527 26.0256Z" fill="white"/>
<path d="M131.538 32.5088H125.202L123.775 34.2784H130.104L131.538 32.5088Z" fill="white"/>
<path d="M149.596 21.417H142.694L141.275 23.1943H148.178L149.596 21.417Z" fill="white"/>
<path d="M139.697 37.9908V25.1074H137.25V41.8058H139.521L149.779 28.9455V41.8058H152.202V25.1074H149.931L139.697 37.9908Z" fill="white"/>
<path d="M163.519 39.8762C162.236 39.8762 161.072 39.5993 160.036 39.0378C159 38.484 158.187 37.7149 157.605 36.738C157.024 35.7612 156.729 34.669 156.729 33.4614C156.729 32.2539 157.024 31.1617 157.605 30.1848C158.187 29.208 159 28.4389 160.036 27.8851C161.072 27.3313 162.236 27.0467 163.519 27.0467C165.464 27.0467 167.09 27.7082 168.389 29.0234L169.999 27.5236C169.21 26.6621 168.254 26.016 167.13 25.5776C166.006 25.1392 164.771 24.9238 163.424 24.9238C161.694 24.9238 160.124 25.293 158.729 26.0314C157.327 26.7698 156.235 27.7851 155.438 29.085C154.649 30.3848 154.25 31.8385 154.25 33.4614C154.25 35.0844 154.649 36.5458 155.438 37.8379C156.227 39.1378 157.319 40.1531 158.713 40.8915C160.108 41.6299 161.67 41.9991 163.4 41.9991C164.755 41.9991 165.99 41.776 167.122 41.3299C168.254 40.8838 169.21 40.23 169.999 39.3762L168.389 37.8764C167.074 39.207 165.448 39.8762 163.519 39.8762Z" fill="white"/>
<path d="M73.5615 25.1084L65.8145 41.7837H68.4287L74.9244 27.5159L81.4121 41.7837H84.0263L76.2793 25.1084H73.5615Z" fill="white"/>
<path d="M27.4095 10.0872C27.4095 9.37954 27.7761 8.74884 28.334 8.36426C12.6328 8.63346 0 20.9938 0 36.2C0 38.1075 0.199255 39.9765 0.581824 41.7763C0.382569 40.4995 0.278957 39.192 0.278957 37.8613C0.278957 23.4012 12.4255 11.6793 27.4095 11.6793C27.6725 11.6793 27.9276 11.6947 28.1826 11.6947C27.7124 11.3101 27.4095 10.7333 27.4095 10.0872Z" fill="white"/>
<path d="M30.6672 11.4557L26.2915 16.9552C26.2039 17.0629 26.1879 17.209 26.2517 17.3321L27.511 19.8703C27.6305 20.1087 27.9732 20.1472 28.1406 19.9318L33.648 13.0017C33.7357 12.8941 33.7516 12.7479 33.6879 12.6248L33.3292 11.9095L36.9716 12.3787C37.4498 12.4172 37.7845 12.3633 38.1751 12.1787C39.2909 11.6634 39.7532 10.3712 39.2192 9.3021C38.9004 8.65601 38.3106 8.29451 37.6251 8.16375L41.6421 3.11809C41.7298 3.01041 41.7457 2.86427 41.682 2.74121L40.4227 0.202998C40.3031 -0.0354397 39.9604 -0.0738975 39.793 0.141466L34.2856 7.07155C34.198 7.17923 34.182 7.32537 34.2458 7.44844L34.6363 8.23297L31.3606 8.41757C31.1613 8.43295 30.9621 8.4791 30.7708 8.5714C29.9259 8.96367 29.5752 9.9405 29.9817 10.7481C30.1332 11.0635 30.3802 11.3019 30.6672 11.4557Z" fill="#056CF2"/>
</svg>
